<!DOCTYPE svg PUBLIC "-//W3C//DTD SVG 1.1//EN" "http://www.w3.org/Graphics/SVG/1.1/DTD/svg11.dtd">
<svg xmlns="http://www.w3.org/2000/svg" xmlns:xlink="http://www.w3.org/1999/xlink" width="1501px" height="211px" version="1.1" style="background-color: rgb(255, 255, 255);"><defs/><g transform="translate(0.5,0.5)"><rect x="1060" y="130" width="40" height="80" fill="#f48fb1" stroke="#f48fb1" pointer-events="none"/><rect x="0" y="10" width="120" height="40" fill="#fff59d" stroke="#ffeb3b" pointer-events="none"/><rect x="0" y="50" width="40" height="120" fill="#fff59d" stroke="#fff59d" pointer-events="none"/><rect x="0" y="170" width="120" height="40" fill="#fff59d" stroke="#fff59d" pointer-events="none"/><rect x="0" y="90" width="120" height="40" fill="#fff59d" stroke="#fff59d" pointer-events="none"/><rect x="140" y="50" width="40" height="160" fill="#ce93d8" stroke="#ce93d8" pointer-events="none"/><rect x="140" y="10" width="120" height="40" fill="#ce93d8" stroke="#ce93d8" pointer-events="none"/><rect x="220" y="50" width="40" height="160" fill="#ce93d8" stroke="#ce93d8" pointer-events="none"/><rect x="280" y="10" width="120" height="40" fill="#ffcc80" stroke="#ffcc80" pointer-events="none"/><rect x="280" y="50" width="40" height="120" fill="#ffcc80" stroke="#ffcc80" pointer-events="none"/><rect x="280" y="170" width="120" height="40" fill="#ffcc80" stroke="#ffcc80" pointer-events="none"/><rect x="420" y="10" width="40" height="160" fill="#90caf9" stroke="#90caf9" pointer-events="none"/><rect x="420" y="170" width="120" height="40" fill="#90caf9" stroke="#90caf9" pointer-events="none"/><rect x="560" y="10" width="120" height="40" fill="#ef9a9a" stroke="#ef9a9a" pointer-events="none"/><rect x="560" y="50" width="40" height="120" fill="#ef9a9a" stroke="#ef9a9a" pointer-events="none"/><rect x="560" y="170" width="120" height="40" fill="#ef9a9a" stroke="#ef9a9a" pointer-events="none"/><rect x="640" y="50" width="40" height="120" fill="#ef9a9a" stroke="#ef9a9a" pointer-events="none"/><rect x="700" y="10" width="120" height="40" fill="#80cbc4" stroke="#80cbc4" pointer-events="none"/><rect x="700" y="50" width="40" height="40" fill="#80cbc4" stroke="#80cbc4" pointer-events="none"/><rect x="700" y="170" width="120" height="40" fill="#80cbc4" stroke="#80cbc4" pointer-events="none"/><rect x="700" y="90" width="120" height="40" fill="#80cbc4" stroke="#80cbc4" pointer-events="none"/><rect x="780" y="130" width="40" height="40" fill="#80cbc4" stroke="#80cbc4" pointer-events="none"/><rect x="80" y="200" width="40" height="10" fill="#fbc02d" stroke="#fbc02d" pointer-events="none"/><rect x="140" y="160" width="40" height="40" fill="#ab47bc" stroke="#ab47bc" pointer-events="none"/><rect x="80" y="160" width="40" height="40" fill="#ffeb3b" stroke="#ffeb3b" pointer-events="none"/><rect x="140" y="200" width="40" height="10" fill="#7b1fa2" stroke="#7b1fa2" pointer-events="none"/><rect x="360" y="0" width="40" height="40" fill="#ff9800" stroke="#ff9800" pointer-events="none"/><rect x="360" y="40" width="40" height="10" fill="#f57c00" stroke="#f57c00" pointer-events="none"/><rect x="500" y="160" width="40" height="40" fill="#2196f3" stroke="#2196f3" pointer-events="none"/><rect x="500" y="200" width="40" height="10" fill="#1976d2" stroke="#1976d2" pointer-events="none"/><rect x="560" y="0" width="40" height="40" fill="#f44336" stroke="#f44336" pointer-events="none"/><rect x="560" y="40" width="40" height="10" fill="#d32f2f" stroke="#d32f2f" pointer-events="none"/><rect x="780" y="0" width="40" height="40" fill="#009688" stroke="#009688" pointer-events="none"/><rect x="780" y="40" width="40" height="10" fill="#00796b" stroke="#00796b" pointer-events="none"/><rect x="840" y="10" width="40" height="160" fill="#9fa8da" stroke="#9fa8da" pointer-events="none"/><rect x="840" y="170" width="120" height="40" fill="#9fa8da" stroke="#9fa8da" pointer-events="none"/><rect x="920" y="10" width="40" height="160" fill="#9fa8da" stroke="#9fa8da" pointer-events="none"/><rect x="840" y="0" width="40" height="40" fill="#3f51b5" stroke="#3f51b5" pointer-events="none"/><rect x="840" y="40" width="40" height="10" fill="#303f9f" stroke="#303f9f" pointer-events="none"/><rect x="980" y="10" width="120" height="40" fill="#f48fb1" stroke="#f48fb1" pointer-events="none"/><rect x="980" y="50" width="40" height="160" fill="#f48fb1" stroke="#f48fb1" pointer-events="none"/><rect x="980" y="90" width="100" height="40" fill="#f48fb1" stroke="#f48fb1" pointer-events="none"/><rect x="1060" y="200" width="40" height="10" fill="#c2185b" stroke="#c2185b" pointer-events="none"/><rect x="1060" y="160" width="40" height="40" fill="#e91e63" stroke="#e91e63" pointer-events="none"/><rect x="1060" y="50" width="40" height="60" fill="#f48fb1" stroke="#f48fb1" pointer-events="none"/><rect x="1120" y="10" width="120" height="40" fill="#e6ee9c" stroke="#e6ee9c" pointer-events="none"/><rect x="1120" y="50" width="40" height="120" fill="#e6ee9c" stroke="#e6ee9c" pointer-events="none"/><rect x="1120" y="170" width="120" height="40" fill="#e6ee9c" stroke="#e6ee9c" pointer-events="none"/><rect x="1120" y="90" width="120" height="40" fill="#e6ee9c" stroke="#e6ee9c" pointer-events="none"/><rect x="1200" y="120" width="40" height="10" fill="#afb42b" stroke="#afb42b" pointer-events="none"/><rect x="1200" y="80" width="40" height="40" fill="#cddc39" stroke="#cddc39" pointer-events="none"/><rect x="1260" y="200" width="40" height="10" fill="#e64a19" stroke="#e64a19" pointer-events="none"/><rect x="1260" y="160" width="40" height="40" fill="#ff5722" stroke="#ff5722" pointer-events="none"/><rect x="1320" y="10" width="40" height="200" fill="#b39ddb" stroke="#b39ddb" pointer-events="none"/><rect x="1320" y="40" width="40" height="10" fill="#512da8" stroke="#512da8" pointer-events="none"/><rect x="1320" y="0" width="40" height="40" fill="#673ab7" stroke="#673ab7" pointer-events="none"/><rect x="1380" y="10" width="120" height="40" fill="#a5d6a7" stroke="#a5d6a7" pointer-events="none"/><rect x="1380" y="50" width="40" height="120" fill="#a5d6a7" stroke="#a5d6a7" pointer-events="none"/><rect x="1380" y="170" width="120" height="40" fill="#a5d6a7" stroke="#a5d6a7" pointer-events="none"/><rect x="1460" y="50" width="40" height="120" fill="#a5d6a7" stroke="#a5d6a7" pointer-events="none"/><rect x="1460" y="0" width="40" height="40" fill="#4caf50" stroke="#4caf50" pointer-events="none"/><rect x="1460" y="40" width="40" height="10" fill="#388e3c" stroke="#388e3c" pointer-events="none"/><rect x="600" y="50" width="40" height="120" fill="#d32f2f" stroke="#d32f2f" pointer-events="none"/><rect x="1420" y="50" width="40" height="120" fill="#388e3c" stroke="#388e3c" pointer-events="none"/><rect x="1020" y="50" width="40" height="40" fill="#c2185b" stroke="#c2185b" pointer-events="none"/></g></svg>